<svg width="60" height="60" viewBox="0 0 60 60" fill="none" xmlns="http://www.w3.org/2000/svg">
<path opacity="0.21" fill-rule="evenodd" clip-rule="evenodd" d="M0 30V37C0 49.7025 10.2975 60 23 60H30H37C49.7025 60 60 49.7025 60 37V30V23C60 10.2975 49.7025 0 37 0H30H23C10.2975 0 0 10.2975 0 23V30Z" fill="#FEC53D"/>
<path fill-rule="evenodd" clip-rule="evenodd" d="M15 24.3167L27.9005 31.7648C28.0394 31.845 28.1851 31.9029 28.3333 31.9397V46.3849L15.9201 39.0387C15.3498 38.7012 15 38.0878 15 37.4251V24.3167ZM45 24.1187V37.4251C45 38.0878 44.6502 38.7012 44.0799 39.0387L31.6667 46.3849V31.8131C31.6969 31.798 31.7269 31.7819 31.7566 31.7648L45 24.1187Z" fill="#FEC53D"/>
<path opacity="0.499209" fill-rule="evenodd" clip-rule="evenodd" d="M15.4053 20.7014C15.5628 20.5024 15.7617 20.3343 15.9936 20.2108L29.1186 13.2201C29.6696 12.9266 30.3305 12.9266 30.8815 13.2201L44.0065 20.2108C44.1852 20.306 44.3444 20.4277 44.4801 20.5697L30.0899 28.8778C29.9953 28.9325 29.9081 28.995 29.8286 29.064C29.7491 28.995 29.6618 28.9325 29.5672 28.8778L15.4053 20.7014Z" fill="#FEC53D"/>
</svg>
